<svg width="512" height="512" viewBox="0 0 512 512" fill="none" xmlns="http://www.w3.org/2000/svg">
<path d="M300.218 396.89C259.491 381.302 217.6 378.904 179.2 389.696C152.437 396.89 126.837 411.279 103.564 429.265L87.2728 443.654L82.6183 448.45L93.0909 458.042C94.2546 458.042 94.2547 459.241 95.4184 460.44C97.7456 462.838 100.073 464.038 103.564 466.436L110.545 471.232L117.527 465.237C118.691 464.037 121.018 461.639 123.346 460.44C144.291 442.454 167.564 430.464 192 424.468C223.418 416.075 257.164 417.274 290.909 430.464C318.836 441.255 375.855 454.445 444.509 424.468L446.837 423.269L450.327 419.672C450.327 418.473 451.491 418.473 452.655 417.274C458.473 410.08 464.291 402.885 468.946 394.492L492.218 357.321L454.982 378.904C400.291 410.079 350.255 416.075 300.218 396.89Z" fill="black"/>
<path d="M140.8 267.391C172.218 258.998 205.964 260.197 239.709 273.386C276.946 287.775 372.364 308.159 479.418 208.637L496.873 190.651L498.037 189.452L502.691 184.656L500.364 178.66C499.2 173.864 496.873 167.869 494.545 161.874L488.727 145.086L477.091 157.077C475.927 159.475 473.6 160.674 471.273 163.072C420.073 217.03 340.945 272.187 250.182 238.614C209.455 223.026 167.564 220.628 129.164 231.419C91.9274 242.211 59.3455 262.595 29.091 291.372V290.173L11.6364 309.358C11.6364 310.557 10.473 310.557 9.30936 311.757L5.81824 315.354L6.98194 320.15C8.14558 326.145 10.4728 332.14 11.6364 338.136L18.6183 357.321L30.2547 341.733C31.4183 339.335 33.7455 338.136 34.9091 335.738C59.3455 312.956 93.091 280.581 140.8 267.391Z" fill="black"/>
<path d="M27.9276 245.808C54.6912 217.03 84.9455 199.044 117.527 189.452C148.946 181.058 182.691 182.257 216.436 195.447C321.164 235.016 411.927 170.267 451.491 135.494L466.618 119.906L472.436 115.11L467.782 107.916C464.291 104.318 461.964 99.5222 458.473 94.7259L451.491 85.1332L443.346 93.5268C442.182 94.7258 439.855 97.1239 438.691 98.323C389.818 146.285 314.182 195.447 228.073 161.874C187.346 146.286 145.455 143.888 107.055 154.679C82.6183 161.873 59.3455 173.864 36.0728 189.452L11.6364 209.836C9.30909 212.234 8.14545 213.433 5.81818 215.831L3.49112 218.229V221.827C2.32749 230.22 2.32734 238.614 1.16371 245.808L0 275.785L19.782 254.201C22.1092 251.803 24.4366 248.206 27.9276 245.808Z" fill="black"/>
<path d="M333.964 478.426L331.636 485.621L333.964 478.426C330.473 477.227 328.146 476.028 324.655 474.829C283.928 459.241 242.036 456.843 203.636 467.635C195.491 470.033 187.346 472.431 179.2 476.028L151.273 489.218L144.291 492.815L167.564 501.209C174.546 503.607 181.527 506.005 188.509 508.403L192 509.602L195.491 508.403C198.982 507.204 202.473 504.806 205.964 504.806C208.291 504.806 210.618 503.607 212.946 502.408C240.873 495.213 271.127 495.213 303.709 506.005C307.2 507.204 309.528 508.403 313.018 509.602L318.837 512L322.327 510.801C330.473 508.403 339.782 506.005 346.764 502.408L379.345 490.417L345.6 482.023C342.109 480.824 337.455 479.625 333.964 478.426Z" fill="black"/>
<path d="M512 230.22L494.546 248.206C492.218 250.604 489.891 253.002 487.564 255.4C439.855 302.164 363.055 352.524 276.946 318.951C236.218 303.363 194.328 300.965 155.928 311.757C119.855 322.548 87.2728 341.733 58.1819 370.511L43.0547 387.297L38.4003 393.293L43.0547 400.487C46.5457 405.283 48.8731 408.881 51.2003 413.677L58.1819 424.468L66.3275 413.677C67.4911 412.478 69.8183 410.079 70.9819 408.88C98.9092 377.705 129.164 358.52 164.073 348.927C195.491 340.534 229.237 341.733 262.982 354.923C292.073 365.714 322.328 369.312 352.582 365.714C406.109 359.719 459.637 328.543 499.2 293.771C501.528 291.372 503.855 290.173 506.182 287.775L509.673 284.178V280.581C509.673 273.386 510.837 264.993 510.837 257.799L512 230.22Z" fill="black"/>
<path d="M69.8182 119.906L66.3274 112.712L69.8182 119.906C76.8 116.309 84.9458 113.911 91.9276 111.513C123.346 103.119 157.091 104.318 190.837 117.508C212.946 125.902 235.055 129.499 259.491 129.499C308.364 129.499 357.236 111.513 402.618 76.7401L420.073 62.3511L425.891 57.555L415.418 49.1614C411.927 45.5642 407.273 41.9671 402.618 39.569L395.636 34.7728L389.818 39.569C387.491 40.7681 386.327 43.1661 384 44.3652C322.327 92.3277 260.655 105.518 202.473 82.7354C160.582 67.1475 118.691 63.5504 76.8001 76.7401C73.3092 77.9391 69.8183 79.138 65.1637 80.3371L62.8367 81.5362L59.3455 85.1333C59.3455 86.3323 58.1821 86.3325 57.0185 87.5316C52.3639 94.7259 46.5455 100.721 41.891 107.916L19.782 142.689L55.8548 123.503C61.673 123.503 66.3273 121.105 69.8182 119.906Z" fill="black"/>
<path d="M165.237 38.3698L168.727 39.569C183.855 45.5643 207.127 51.5596 236.218 51.5596C266.473 51.5596 295.564 44.3651 324.655 32.3745L360.727 14.3885L336.291 5.99532C329.309 3.59719 322.327 1.19906 314.182 0H310.691L307.2 1.19877C303.709 2.39783 300.218 4.79625 296.727 5.99532C261.818 19.185 226.909 21.5831 193.164 11.9906C189.673 10.7916 186.182 9.59229 182.691 8.39323L179.2 7.19409L175.709 8.39323C168.727 10.7914 161.746 13.1896 154.764 16.7868L128 28.7775L155.928 37.1707C158.255 35.9716 161.746 37.1708 165.237 38.3698Z" fill="black"/>
</svg>
